<svg width="2819" height="1434" viewBox="0 0 2819 1434" fill="none" xmlns="http://www.w3.org/2000/svg">
<g opacity="0.978">
<path fill-rule="evenodd" clip-rule="evenodd" d="M520.84 360.31C647.74 355.03 750.9 401.36 830.34 499.31C858.62 536.54 878.95 577.87 891.34 623.31C893.35 630.3 890.85 633.13 883.84 631.81C859.63 617.74 833.63 608.4 805.84 603.81C722.01 588.69 638.01 587.69 553.84 600.81C523.05 605.17 493.71 614.17 465.84 627.81C456.62 632.7 449.79 639.86 445.34 649.31C444.57 653.4 444.91 657.4 446.34 661.31C453.38 672.09 462.88 679.92 474.84 684.81C515 700.64 556.66 709.98 599.84 712.81C672.39 719.55 744.39 715.88 815.84 701.81C837.51 697.25 858.18 689.92 877.84 679.81C882.87 676.63 887.54 672.96 891.84 668.81C895.17 666.52 898.01 667.02 900.34 670.31C913.85 803.51 869.35 912.68 766.84 997.81C672.37 1068.1 567.71 1089.1 452.84 1060.81C344.33 1028.62 266.49 961.12 219.34 858.31C212.48 842.4 206.82 826.07 202.34 809.31C200.67 802.65 203.17 799.81 209.84 800.81C225.51 811.04 242.51 818.37 260.84 822.81C313.88 835.78 367.71 841.94 422.34 841.31C471.36 841.64 519.86 836.81 567.84 826.81C589.26 822.45 609.6 815.11 628.84 804.81C637.73 800.25 644.23 793.42 648.34 784.31C649.94 774 646.44 765.83 637.84 759.81C622.58 749.27 605.91 741.6 587.84 736.81C545.24 725.57 501.91 719.23 457.84 717.81C403.14 715.27 348.8 718.61 294.84 727.81C267.58 732.34 241.58 740.67 216.84 752.81C211.29 756.09 206.29 760.09 201.84 764.81C198.34 765.93 195.51 765.1 193.34 762.31C180.25 633.52 222.08 526.69 318.84 441.81C377.72 394.01 445.05 366.84 520.84 360.31Z" fill="#FEFFFE"/>
<path fill-rule="evenodd" clip-rule="evenodd" d="M1693.84 478.31C1718.92 478.24 1734.42 490.24 1740.34 514.31C1741.96 540.24 1730.13 556.07 1704.84 561.81C1679.42 564.36 1662.92 553.53 1655.34 529.31C1652.52 500.32 1665.35 483.32 1693.84 478.31Z" fill="#FEFFFE"/>
<path fill-rule="evenodd" clip-rule="evenodd" d="M2014.84 481.31C2037.84 481.31 2060.84 481.31 2083.84 481.31C2083.84 639.64 2083.84 797.98 2083.84 956.31C2061.51 956.31 2039.17 956.31 2016.84 956.31C2017.01 939.64 2016.84 922.97 2016.34 906.31C1997.91 937.37 1970.74 955.87 1934.84 961.81C1852.7 968.67 1799.2 932.83 1774.34 854.31C1764.22 814.22 1763.22 773.88 1771.34 733.31C1780.42 690.94 1802.59 657.44 1837.84 632.81C1877.78 610.27 1919.45 606.6 1962.84 621.81C1985.17 630.72 2002.34 645.55 2014.34 666.31C2014.84 604.64 2015.01 542.98 2014.84 481.31ZM1915.84 671.31C1967.72 670 2000.56 694.33 2014.34 744.31C2024.05 783.2 2020.71 820.86 2004.34 857.31C1981.33 896.11 1947.5 910.95 1902.84 901.81C1870.86 891.83 1850.36 870.67 1841.34 838.31C1832.41 803.55 1832.75 768.88 1842.34 734.31C1854.46 698.68 1878.96 677.68 1915.84 671.31Z" fill="#FEFFFE"/>
<path fill-rule="evenodd" clip-rule="evenodd" d="M1463.84 611.31C1546.24 610.74 1599.4 649.74 1623.34 728.31C1629.33 753.96 1631.83 779.96 1630.84 806.31C1548.17 806.31 1465.51 806.31 1382.84 806.31C1383.49 839.48 1395.83 867.31 1419.84 889.81C1437.19 901.98 1456.52 907.81 1477.84 907.31C1511.17 908.4 1536.67 895.07 1554.34 867.31C1556.27 863.02 1558.1 858.68 1559.84 854.31C1581.84 852.98 1603.84 852.98 1625.84 854.31C1615 900.65 1587.67 933.15 1543.84 951.81C1509.4 964.87 1474.07 967.87 1437.84 960.81C1384.18 948.16 1347.68 915.99 1328.34 864.31C1313.23 818.4 1311.9 772.06 1324.34 725.31C1346.55 657.24 1393.05 619.24 1463.84 611.31ZM1468.84 668.31C1515.9 668.23 1546.4 690.56 1560.34 735.31C1561.94 741.57 1563.11 747.91 1563.84 754.31C1503.84 754.31 1443.84 754.31 1383.84 754.31C1389.58 702.91 1417.91 674.24 1468.84 668.31Z" fill="#FEFFFE"/>
<path fill-rule="evenodd" clip-rule="evenodd" d="M1138.84 612.31C1167.3 609.83 1194.97 613.33 1221.84 622.81C1266.52 641.34 1289.86 674.84 1291.84 723.31C1269.84 723.31 1247.84 723.31 1225.84 723.31C1223.95 692.74 1207.95 674.24 1177.84 667.81C1158.38 664.12 1139.71 666.45 1121.84 674.81C1098.84 688.81 1093.01 707.97 1104.34 732.31C1113.9 742.34 1125.4 749.18 1138.84 752.81C1161.14 757.97 1183.47 762.97 1205.84 767.81C1229.6 772.53 1251.26 781.86 1270.84 795.81C1295.15 818.08 1304.32 845.58 1298.34 878.31C1292.88 905.09 1278.72 925.93 1255.84 940.81C1236.75 952.51 1216.09 959.84 1193.84 962.81C1158.85 967.82 1124.85 964.16 1091.84 951.81C1048.63 933.39 1025.29 900.73 1021.84 853.81C1044.5 853.31 1067.17 853.14 1089.84 853.31C1092.97 885.61 1110.64 904.11 1142.84 908.81C1162.27 911.89 1181.27 910.22 1199.84 903.81C1224.23 894.19 1233.73 876.69 1228.34 851.31C1224.22 843.53 1218.39 837.36 1210.84 832.81C1203.75 829.22 1196.41 826.22 1188.84 823.81C1163.8 818.3 1138.8 812.63 1113.84 806.81C1086.13 800.72 1063.3 786.88 1045.34 765.31C1031.76 744.21 1027.1 721.21 1031.34 696.31C1035 674.15 1045.5 655.99 1062.84 641.81C1085.33 624.59 1110.67 614.76 1138.84 612.31Z" fill="#FEFFFE"/>
<path fill-rule="evenodd" clip-rule="evenodd" d="M2260.84 612.31C2288.38 611.09 2315.05 615.25 2340.84 624.81C2379.31 641.95 2400.81 671.45 2405.34 713.31C2405.84 794.31 2406.01 875.31 2405.84 956.31C2383.51 956.31 2361.17 956.31 2338.84 956.31C2339.01 940.64 2338.84 924.97 2338.34 909.31C2316.04 947.14 2282.7 964.8 2238.34 962.31C2206.18 963.14 2177.35 953.98 2151.84 934.81C2130.32 914.78 2119.99 889.95 2120.84 860.31C2119.71 825.39 2134.04 799.23 2163.84 781.81C2184.86 772.05 2206.86 765.39 2229.84 761.81C2258.53 757.97 2287.2 753.97 2315.84 749.81C2335.57 745.88 2342.74 734.05 2337.34 714.31C2332.59 693.56 2320.09 679.72 2299.84 672.81C2279.08 666.82 2258.42 667.15 2237.84 673.81C2218.57 680.5 2205.41 693.33 2198.34 712.31C2197.23 715.9 2196.73 719.56 2196.84 723.31C2174.51 723.31 2152.17 723.31 2129.84 723.31C2131.91 683.11 2150.24 652.95 2184.84 632.81C2208.78 620.33 2234.11 613.49 2260.84 612.31ZM2337.84 792.31C2339 806.8 2339.17 821.47 2338.34 836.31C2333.41 876.58 2310.91 899.74 2270.84 905.81C2249.17 909.38 2228.51 906.38 2208.84 896.81C2192.56 885.4 2186.39 869.9 2190.34 850.31C2193.11 838.94 2199.61 830.44 2209.84 824.81C2219.79 819.83 2230.12 815.83 2240.84 812.81C2267.54 808.36 2294.21 803.69 2320.84 798.81C2326.95 797.5 2332.61 795.33 2337.84 792.31Z" fill="#FEFFFE"/>
<path fill-rule="evenodd" clip-rule="evenodd" d="M2590.84 615.31C2603.85 615.21 2616.85 615.54 2629.84 616.31C2629.84 637.64 2629.84 658.98 2629.84 680.31C2615.27 677.82 2600.6 676.99 2585.84 677.81C2549.78 684.21 2529.94 705.71 2526.34 742.31C2525.84 813.64 2525.67 884.98 2525.84 956.31C2502.84 956.31 2479.84 956.31 2456.84 956.31C2456.84 843.98 2456.84 731.64 2456.84 619.31C2478.84 619.31 2500.84 619.31 2522.84 619.31C2522.67 636.98 2522.84 654.65 2523.34 672.31C2534.19 639.28 2556.69 620.28 2590.84 615.31Z" fill="#FEFFFE"/>
<path fill-rule="evenodd" clip-rule="evenodd" d="M1662.84 619.31C1685.84 619.31 1708.84 619.31 1731.84 619.31C1731.84 731.64 1731.84 843.98 1731.84 956.31C1708.84 956.31 1685.84 956.31 1662.84 956.31C1662.84 843.98 1662.84 731.64 1662.84 619.31Z" fill="#FEFFFE"/>
</g>
</svg>
