<?xml version="1.0" encoding="UTF-8"?>
<!DOCTYPE svg PUBLIC "-//W3C//DTD SVG 1.1//EN" "http://www.w3.org/Graphics/SVG/1.1/DTD/svg11.dtd">
<svg xmlns="http://www.w3.org/2000/svg" version="1.1" width="8000px" height="4500px" style="shape-rendering:geometricPrecision; text-rendering:geometricPrecision; image-rendering:optimizeQuality; fill-rule:evenodd; clip-rule:evenodd" xmlns:xlink="http://www.w3.org/1999/xlink">
<g><path style="opacity:0.994" fill="#fefffe" d="M 3110.5,1843.5 C 3237.4,1838.22 3340.56,1884.55 3420,1982.5C 3448.28,2019.73 3468.61,2061.06 3481,2106.5C 3483.01,2113.49 3480.51,2116.32 3473.5,2115C 3449.29,2100.93 3423.29,2091.59 3395.5,2087C 3311.67,2071.88 3227.67,2070.88 3143.5,2084C 3112.71,2088.36 3083.37,2097.36 3055.5,2111C 3046.28,2115.89 3039.45,2123.05 3035,2132.5C 3034.23,2136.59 3034.57,2140.59 3036,2144.5C 3043.04,2155.28 3052.54,2163.11 3064.5,2168C 3104.66,2183.83 3146.32,2193.17 3189.5,2196C 3262.05,2202.74 3334.05,2199.07 3405.5,2185C 3427.17,2180.44 3447.84,2173.11 3467.5,2163C 3472.53,2159.82 3477.2,2156.15 3481.5,2152C 3484.83,2149.71 3487.67,2150.21 3490,2153.5C 3503.51,2286.7 3459.01,2395.87 3356.5,2481C 3262.03,2551.29 3157.37,2572.29 3042.5,2544C 2933.99,2511.81 2856.15,2444.31 2809,2341.5C 2802.14,2325.59 2796.48,2309.26 2792,2292.5C 2790.33,2285.84 2792.83,2283 2799.5,2284C 2815.17,2294.23 2832.17,2301.56 2850.5,2306C 2903.54,2318.97 2957.37,2325.13 3012,2324.5C 3061.02,2324.83 3109.52,2320 3157.5,2310C 3178.92,2305.64 3199.26,2298.3 3218.5,2288C 3227.39,2283.44 3233.89,2276.61 3238,2267.5C 3239.6,2257.19 3236.1,2249.02 3227.5,2243C 3212.24,2232.46 3195.57,2224.79 3177.5,2220C 3134.9,2208.76 3091.57,2202.42 3047.5,2201C 2992.8,2198.46 2938.46,2201.8 2884.5,2211C 2857.24,2215.53 2831.24,2223.86 2806.5,2236C 2800.95,2239.28 2795.95,2243.28 2791.5,2248C 2788,2249.12 2785.17,2248.29 2783,2245.5C 2769.91,2116.71 2811.74,2009.88 2908.5,1925C 2967.38,1877.2 3034.71,1850.03 3110.5,1843.5 Z"/></g>
<g><path style="opacity:0.977" fill="#fefffe" d="M 4283.5,1961.5 C 4308.58,1961.43 4324.08,1973.43 4330,1997.5C 4331.62,2023.43 4319.79,2039.26 4294.5,2045C 4269.08,2047.55 4252.58,2036.72 4245,2012.5C 4242.18,1983.51 4255.01,1966.51 4283.5,1961.5 Z"/></g>
<g><path style="opacity:0.984" fill="#fefffe" d="M 4604.5,1964.5 C 4627.5,1964.5 4650.5,1964.5 4673.5,1964.5C 4673.5,2122.83 4673.5,2281.17 4673.5,2439.5C 4651.17,2439.5 4628.83,2439.5 4606.5,2439.5C 4606.67,2422.83 4606.5,2406.16 4606,2389.5C 4587.57,2420.56 4560.4,2439.06 4524.5,2445C 4442.36,2451.86 4388.86,2416.02 4364,2337.5C 4353.88,2297.41 4352.88,2257.07 4361,2216.5C 4370.08,2174.13 4392.25,2140.63 4427.5,2116C 4467.44,2093.46 4509.11,2089.79 4552.5,2105C 4574.83,2113.91 4592,2128.74 4604,2149.5C 4604.5,2087.83 4604.67,2026.17 4604.5,1964.5 Z M 4505.5,2154.5 C 4557.38,2153.19 4590.22,2177.52 4604,2227.5C 4613.71,2266.39 4610.37,2304.05 4594,2340.5C 4570.99,2379.3 4537.16,2394.14 4492.5,2385C 4460.52,2375.02 4440.02,2353.86 4431,2321.5C 4422.07,2286.74 4422.41,2252.07 4432,2217.5C 4444.12,2181.87 4468.62,2160.87 4505.5,2154.5 Z"/></g>
<g><path style="opacity:0.985" fill="#fefffe" d="M 4053.5,2094.5 C 4135.9,2093.93 4189.06,2132.93 4213,2211.5C 4218.99,2237.15 4221.49,2263.15 4220.5,2289.5C 4137.83,2289.5 4055.17,2289.5 3972.5,2289.5C 3973.15,2322.67 3985.49,2350.5 4009.5,2373C 4026.85,2385.17 4046.18,2391 4067.5,2390.5C 4100.83,2391.59 4126.33,2378.26 4144,2350.5C 4145.93,2346.21 4147.76,2341.87 4149.5,2337.5C 4171.5,2336.17 4193.5,2336.17 4215.5,2337.5C 4204.66,2383.84 4177.33,2416.34 4133.5,2435C 4099.06,2448.06 4063.73,2451.06 4027.5,2444C 3973.84,2431.35 3937.34,2399.18 3918,2347.5C 3902.89,2301.59 3901.56,2255.25 3914,2208.5C 3936.21,2140.43 3982.71,2102.43 4053.5,2094.5 Z M 4058.5,2151.5 C 4105.56,2151.42 4136.06,2173.75 4150,2218.5C 4151.6,2224.76 4152.77,2231.1 4153.5,2237.5C 4093.5,2237.5 4033.5,2237.5 3973.5,2237.5C 3979.24,2186.1 4007.57,2157.43 4058.5,2151.5 Z"/></g>
<g><path style="opacity:0.983" fill="#fefffe" d="M 3728.5,2095.5 C 3756.96,2093.02 3784.63,2096.52 3811.5,2106C 3856.18,2124.53 3879.52,2158.03 3881.5,2206.5C 3859.5,2206.5 3837.5,2206.5 3815.5,2206.5C 3813.61,2175.93 3797.61,2157.43 3767.5,2151C 3748.04,2147.31 3729.37,2149.64 3711.5,2158C 3688.5,2172 3682.67,2191.16 3694,2215.5C 3703.56,2225.53 3715.06,2232.37 3728.5,2236C 3750.8,2241.16 3773.13,2246.16 3795.5,2251C 3819.26,2255.72 3840.92,2265.05 3860.5,2279C 3884.81,2301.27 3893.98,2328.77 3888,2361.5C 3882.54,2388.28 3868.38,2409.12 3845.5,2424C 3826.41,2435.7 3805.75,2443.03 3783.5,2446C 3748.51,2451.01 3714.51,2447.35 3681.5,2435C 3638.29,2416.58 3614.95,2383.92 3611.5,2337C 3634.16,2336.5 3656.83,2336.33 3679.5,2336.5C 3682.63,2368.8 3700.3,2387.3 3732.5,2392C 3751.93,2395.08 3770.93,2393.41 3789.5,2387C 3813.89,2377.38 3823.39,2359.88 3818,2334.5C 3813.88,2326.72 3808.05,2320.55 3800.5,2316C 3793.41,2312.41 3786.07,2309.41 3778.5,2307C 3753.46,2301.49 3728.46,2295.82 3703.5,2290C 3675.79,2283.91 3652.96,2270.07 3635,2248.5C 3621.42,2227.4 3616.76,2204.4 3621,2179.5C 3624.66,2157.34 3635.16,2139.18 3652.5,2125C 3674.99,2107.78 3700.33,2097.95 3728.5,2095.5 Z"/></g>
<g><path style="opacity:0.986" fill="#fefffe" d="M 4850.5,2095.5 C 4878.04,2094.28 4904.71,2098.44 4930.5,2108C 4968.97,2125.14 4990.47,2154.64 4995,2196.5C 4995.5,2277.5 4995.67,2358.5 4995.5,2439.5C 4973.17,2439.5 4950.83,2439.5 4928.5,2439.5C 4928.67,2423.83 4928.5,2408.16 4928,2392.5C 4905.7,2430.33 4872.36,2447.99 4828,2445.5C 4795.84,2446.33 4767.01,2437.17 4741.5,2418C 4719.98,2397.97 4709.65,2373.14 4710.5,2343.5C 4709.37,2308.58 4723.7,2282.42 4753.5,2265C 4774.52,2255.24 4796.52,2248.58 4819.5,2245C 4848.19,2241.16 4876.86,2237.16 4905.5,2233C 4925.23,2229.07 4932.4,2217.24 4927,2197.5C 4922.25,2176.75 4909.75,2162.91 4889.5,2156C 4868.74,2150.01 4848.08,2150.34 4827.5,2157C 4808.23,2163.69 4795.07,2176.52 4788,2195.5C 4786.89,2199.09 4786.39,2202.75 4786.5,2206.5C 4764.17,2206.5 4741.83,2206.5 4719.5,2206.5C 4721.57,2166.3 4739.9,2136.14 4774.5,2116C 4798.44,2103.52 4823.77,2096.68 4850.5,2095.5 Z M 4927.5,2275.5 C 4928.66,2289.99 4928.83,2304.66 4928,2319.5C 4923.07,2359.77 4900.57,2382.93 4860.5,2389C 4838.83,2392.57 4818.17,2389.57 4798.5,2380C 4782.22,2368.59 4776.05,2353.09 4780,2333.5C 4782.77,2322.13 4789.27,2313.63 4799.5,2308C 4809.45,2303.02 4819.78,2299.02 4830.5,2296C 4857.2,2291.55 4883.87,2286.88 4910.5,2282C 4916.61,2280.69 4922.27,2278.52 4927.5,2275.5 Z"/></g>
<g><path style="opacity:0.979" fill="#fefffe" d="M 5180.5,2098.5 C 5193.51,2098.4 5206.51,2098.73 5219.5,2099.5C 5219.5,2120.83 5219.5,2142.17 5219.5,2163.5C 5204.93,2161.01 5190.26,2160.18 5175.5,2161C 5139.44,2167.4 5119.6,2188.9 5116,2225.5C 5115.5,2296.83 5115.33,2368.17 5115.5,2439.5C 5092.5,2439.5 5069.5,2439.5 5046.5,2439.5C 5046.5,2327.17 5046.5,2214.83 5046.5,2102.5C 5068.5,2102.5 5090.5,2102.5 5112.5,2102.5C 5112.33,2120.17 5112.5,2137.84 5113,2155.5C 5123.85,2122.47 5146.35,2103.47 5180.5,2098.5 Z"/></g>
<g><path style="opacity:0.978" fill="#fefffe" d="M 4252.5,2102.5 C 4275.5,2102.5 4298.5,2102.5 4321.5,2102.5C 4321.5,2214.83 4321.5,2327.17 4321.5,2439.5C 4298.5,2439.5 4275.5,2439.5 4252.5,2439.5C 4252.5,2327.17 4252.5,2214.83 4252.5,2102.5 Z"/></g>
</svg>
