<?xml version="1.0" encoding="UTF-8"?>
<!DOCTYPE svg PUBLIC "-//W3C//DTD SVG 1.1//EN" "http://www.w3.org/Graphics/SVG/1.1/DTD/svg11.dtd">
<svg xmlns="http://www.w3.org/2000/svg" version="1.1" width="8001px" height="4500px" style="shape-rendering:geometricPrecision; text-rendering:geometricPrecision; image-rendering:optimizeQuality; fill-rule:evenodd; clip-rule:evenodd" xmlns:xlink="http://www.w3.org/1999/xlink">
<g><path style="opacity:0.994" fill="#f9547a" d="M 3111.5,1843.5 C 3239.85,1838.28 3343.68,1885.61 3423,1985.5C 3450.11,2022.39 3469.78,2063.06 3482,2107.5C 3483.32,2114.51 3480.49,2117.01 3473.5,2115C 3457.4,2104.96 3440.07,2097.62 3421.5,2093C 3369.09,2080.48 3315.92,2074.31 3262,2074.5C 3213.68,2074.65 3165.85,2079.48 3118.5,2089C 3093.47,2093.89 3070.14,2102.89 3048.5,2116C 3032.8,2127.69 3031.47,2140.69 3044.5,2155C 3053.56,2162.2 3063.56,2167.87 3074.5,2172C 3103.37,2182.31 3133.03,2189.31 3163.5,2193C 3238.03,2202.55 3312.36,2201.22 3386.5,2189C 3414.39,2184.48 3441.06,2176.15 3466.5,2164C 3473,2159.66 3479.33,2155.16 3485.5,2150.5C 3488.17,2150.75 3490,2152.08 3491,2154.5C 3503.78,2284.03 3461.28,2391.2 3363.5,2476C 3266.74,2551.15 3158.74,2573.49 3039.5,2543C 2930.94,2509.77 2853.78,2441.27 2808,2337.5C 2802.54,2324.46 2797.87,2311.12 2794,2297.5C 2792.68,2293.57 2792.34,2289.57 2793,2285.5C 2794.91,2283.81 2797.08,2283.31 2799.5,2284C 2815.63,2294.05 2832.97,2301.38 2851.5,2306C 2904.36,2319.02 2958.03,2325.19 3012.5,2324.5C 3064.49,2325 3115.82,2319.5 3166.5,2308C 3187.96,2302.96 3207.96,2294.63 3226.5,2283C 3242.54,2271.01 3243.54,2258.01 3229.5,2244C 3209.47,2230.33 3187.47,2220.99 3163.5,2216C 3096.18,2201.74 3028.18,2197.07 2959.5,2202C 2912.86,2204 2867.52,2212.66 2823.5,2228C 2811.52,2232.65 2800.85,2239.32 2791.5,2248C 2788.65,2248.94 2786.15,2248.44 2784,2246.5C 2770.31,2113.51 2814.47,2004.34 2916.5,1919C 2974.04,1874.87 3039.04,1849.7 3111.5,1843.5 Z"/></g>
<g><path style="opacity:0.977" fill="#1a1b1a" d="M 4283.5,1961.5 C 4308.58,1961.43 4324.08,1973.43 4330,1997.5C 4331.62,2023.43 4319.79,2039.26 4294.5,2045C 4269.08,2047.55 4252.58,2036.72 4245,2012.5C 4242.18,1983.51 4255.01,1966.51 4283.5,1961.5 Z"/></g>
<g><path style="opacity:0.984" fill="#1a1b1a" d="M 4605.5,1964.5 C 4628.5,1964.5 4651.5,1964.5 4674.5,1964.5C 4674.5,2122.83 4674.5,2281.17 4674.5,2439.5C 4652.17,2439.5 4629.83,2439.5 4607.5,2439.5C 4607.67,2422.83 4607.5,2406.16 4607,2389.5C 4588.57,2420.56 4561.4,2439.06 4525.5,2445C 4443.36,2451.86 4389.86,2416.02 4365,2337.5C 4354.88,2297.41 4353.88,2257.07 4362,2216.5C 4371.08,2174.13 4393.25,2140.63 4428.5,2116C 4468.44,2093.46 4510.11,2089.79 4553.5,2105C 4575.83,2113.91 4593,2128.74 4605,2149.5C 4605.5,2087.83 4605.67,2026.17 4605.5,1964.5 Z M 4506.5,2154.5 C 4558.38,2153.19 4591.22,2177.52 4605,2227.5C 4614.71,2266.39 4611.37,2304.05 4595,2340.5C 4571.99,2379.3 4538.16,2394.14 4493.5,2385C 4461.52,2375.02 4441.02,2353.86 4432,2321.5C 4423.07,2286.74 4423.41,2252.07 4433,2217.5C 4445.12,2181.87 4469.62,2160.87 4506.5,2154.5 Z"/></g>
<g><path style="opacity:0.985" fill="#1a1b1a" d="M 4053.5,2094.5 C 4135.9,2093.93 4189.06,2132.93 4213,2211.5C 4218.99,2237.15 4221.49,2263.15 4220.5,2289.5C 4137.83,2289.5 4055.17,2289.5 3972.5,2289.5C 3973.15,2322.67 3985.49,2350.5 4009.5,2373C 4026.85,2385.17 4046.18,2391 4067.5,2390.5C 4100.83,2391.59 4126.33,2378.26 4144,2350.5C 4145.93,2346.21 4147.76,2341.87 4149.5,2337.5C 4171.5,2336.17 4193.5,2336.17 4215.5,2337.5C 4204.66,2383.84 4177.33,2416.34 4133.5,2435C 4099.06,2448.06 4063.73,2451.06 4027.5,2444C 3973.84,2431.35 3937.34,2399.18 3918,2347.5C 3902.89,2301.59 3901.56,2255.25 3914,2208.5C 3936.21,2140.43 3982.71,2102.43 4053.5,2094.5 Z M 4058.5,2151.5 C 4105.56,2151.42 4136.06,2173.75 4150,2218.5C 4151.6,2224.76 4152.77,2231.1 4153.5,2237.5C 4093.5,2237.5 4033.5,2237.5 3973.5,2237.5C 3979.24,2186.1 4007.57,2157.43 4058.5,2151.5 Z"/></g>
<g><path style="opacity:0.983" fill="#1a1b1a" d="M 3728.5,2095.5 C 3756.96,2093.02 3784.63,2096.52 3811.5,2106C 3856.18,2124.53 3879.52,2158.03 3881.5,2206.5C 3859.5,2206.5 3837.5,2206.5 3815.5,2206.5C 3813.61,2175.93 3797.61,2157.43 3767.5,2151C 3748.04,2147.31 3729.37,2149.64 3711.5,2158C 3688.5,2172 3682.67,2191.16 3694,2215.5C 3703.56,2225.53 3715.06,2232.37 3728.5,2236C 3750.8,2241.16 3773.13,2246.16 3795.5,2251C 3819.26,2255.72 3840.92,2265.05 3860.5,2279C 3884.81,2301.27 3893.98,2328.77 3888,2361.5C 3882.54,2388.28 3868.38,2409.12 3845.5,2424C 3826.41,2435.7 3805.75,2443.03 3783.5,2446C 3748.51,2451.01 3714.51,2447.35 3681.5,2435C 3638.29,2416.58 3614.95,2383.92 3611.5,2337C 3634.16,2336.5 3656.83,2336.33 3679.5,2336.5C 3682.63,2368.8 3700.3,2387.3 3732.5,2392C 3751.93,2395.08 3770.93,2393.41 3789.5,2387C 3813.89,2377.38 3823.39,2359.88 3818,2334.5C 3813.88,2326.72 3808.05,2320.55 3800.5,2316C 3793.41,2312.41 3786.07,2309.41 3778.5,2307C 3753.46,2301.49 3728.46,2295.82 3703.5,2290C 3675.79,2283.91 3652.96,2270.07 3635,2248.5C 3621.42,2227.4 3616.76,2204.4 3621,2179.5C 3624.66,2157.34 3635.16,2139.18 3652.5,2125C 3674.99,2107.78 3700.33,2097.95 3728.5,2095.5 Z"/></g>
<g><path style="opacity:0.986" fill="#1a1b1a" d="M 4851.5,2095.5 C 4879.04,2094.28 4905.71,2098.44 4931.5,2108C 4969.97,2125.14 4991.47,2154.64 4996,2196.5C 4996.5,2277.5 4996.67,2358.5 4996.5,2439.5C 4974.17,2439.5 4951.83,2439.5 4929.5,2439.5C 4929.67,2423.83 4929.5,2408.16 4929,2392.5C 4906.7,2430.33 4873.36,2447.99 4829,2445.5C 4796.84,2446.33 4768.01,2437.17 4742.5,2418C 4720.98,2397.97 4710.65,2373.14 4711.5,2343.5C 4710.37,2308.58 4724.7,2282.42 4754.5,2265C 4775.52,2255.24 4797.52,2248.58 4820.5,2245C 4849.19,2241.16 4877.86,2237.16 4906.5,2233C 4926.23,2229.07 4933.4,2217.24 4928,2197.5C 4923.25,2176.75 4910.75,2162.91 4890.5,2156C 4869.74,2150.01 4849.08,2150.34 4828.5,2157C 4809.23,2163.69 4796.07,2176.52 4789,2195.5C 4787.89,2199.09 4787.39,2202.75 4787.5,2206.5C 4765.17,2206.5 4742.83,2206.5 4720.5,2206.5C 4722.57,2166.3 4740.9,2136.14 4775.5,2116C 4799.44,2103.52 4824.77,2096.68 4851.5,2095.5 Z M 4928.5,2275.5 C 4929.66,2289.99 4929.83,2304.66 4929,2319.5C 4924.07,2359.77 4901.57,2382.93 4861.5,2389C 4839.83,2392.57 4819.17,2389.57 4799.5,2380C 4783.22,2368.59 4777.05,2353.09 4781,2333.5C 4783.77,2322.13 4790.27,2313.63 4800.5,2308C 4810.45,2303.02 4820.78,2299.02 4831.5,2296C 4858.2,2291.55 4884.87,2286.88 4911.5,2282C 4917.61,2280.69 4923.27,2278.52 4928.5,2275.5 Z"/></g>
<g><path style="opacity:0.979" fill="#1a1b1a" d="M 5180.5,2098.5 C 5193.51,2098.4 5206.51,2098.73 5219.5,2099.5C 5219.5,2120.83 5219.5,2142.17 5219.5,2163.5C 5204.93,2161.01 5190.26,2160.18 5175.5,2161C 5139.44,2167.4 5119.6,2188.9 5116,2225.5C 5115.5,2296.83 5115.33,2368.17 5115.5,2439.5C 5092.5,2439.5 5069.5,2439.5 5046.5,2439.5C 5046.5,2327.17 5046.5,2214.83 5046.5,2102.5C 5068.5,2102.5 5090.5,2102.5 5112.5,2102.5C 5112.33,2120.17 5112.5,2137.84 5113,2155.5C 5123.85,2122.47 5146.35,2103.47 5180.5,2098.5 Z"/></g>
<g><path style="opacity:0.978" fill="#1a1b1a" d="M 4252.5,2102.5 C 4275.5,2102.5 4298.5,2102.5 4321.5,2102.5C 4321.5,2214.83 4321.5,2327.17 4321.5,2439.5C 4298.5,2439.5 4275.5,2439.5 4252.5,2439.5C 4252.5,2327.17 4252.5,2214.83 4252.5,2102.5 Z"/></g>
</svg>
