<?xml version="1.0" encoding="UTF-8"?>
<!DOCTYPE svg PUBLIC "-//W3C//DTD SVG 1.1//EN" "http://www.w3.org/Graphics/SVG/1.1/DTD/svg11.dtd">
<svg xmlns="http://www.w3.org/2000/svg" version="1.1" width="8000px" height="4500px" style="shape-rendering:geometricPrecision; text-rendering:geometricPrecision; image-rendering:optimizeQuality; fill-rule:evenodd; clip-rule:evenodd" xmlns:xlink="http://www.w3.org/1999/xlink">
<g><path style="opacity:0.994" fill="#000000" d="M 3242.5,2063.5 C 3365.25,2062.3 3464.75,2109.3 3541,2204.5C 3568.7,2241.56 3588.7,2282.56 3601,2327.5C 3603.01,2334.49 3600.51,2337.32 3593.5,2336C 3576.5,2325.34 3558.17,2317.67 3538.5,2313C 3486.88,2300.91 3434.55,2295.08 3381.5,2295.5C 3332.64,2295.2 3284.31,2300.03 3236.5,2310C 3215.58,2314.42 3195.58,2321.42 3176.5,2331C 3147.62,2348.21 3147.29,2365.88 3175.5,2384C 3200.24,2396.14 3226.24,2404.47 3253.5,2409C 3318.48,2419.8 3383.81,2422.47 3449.5,2417C 3491,2414.14 3531.33,2405.81 3570.5,2392C 3582.48,2387.35 3593.15,2380.68 3602.5,2372C 3605.68,2370.96 3608.18,2371.8 3610,2374.5C 3623.17,2500.69 3583.01,2606.19 3489.5,2691C 3402.3,2763.05 3302.64,2789.71 3190.5,2771C 3068.64,2744.79 2981.48,2675.29 2929,2562.5C 2922.14,2546.59 2916.48,2530.26 2912,2513.5C 2909.99,2506.51 2912.49,2503.68 2919.5,2505C 2936.91,2515.59 2955.58,2523.25 2975.5,2528C 3072.14,2549.21 3169.14,2550.88 3266.5,2533C 3287.86,2528.88 3308.53,2522.55 3328.5,2514C 3367.67,2494.6 3368.33,2474.27 3330.5,2453C 3292.66,2437.56 3253.33,2428.23 3212.5,2425C 3138.72,2417.42 3065.39,2420.42 2992.5,2434C 2969.8,2438.34 2948.13,2445.68 2927.5,2456C 2921.26,2459.57 2915.6,2463.9 2910.5,2469C 2907.36,2470.04 2904.86,2469.21 2903,2466.5C 2889.47,2329.11 2936.64,2217.94 3044.5,2133C 3103.64,2090.45 3169.64,2067.28 3242.5,2063.5 Z"/></g>
<g><path style="opacity:0.977" fill="#000000" d="M 4403.5,2182.5 C 4428.58,2182.43 4444.08,2194.43 4450,2218.5C 4451.62,2244.43 4439.79,2260.26 4414.5,2266C 4389.08,2268.55 4372.58,2257.72 4365,2233.5C 4362.18,2204.51 4375.01,2187.51 4403.5,2182.5 Z"/></g>
<g><path style="opacity:0.984" fill="#000000" d="M 4724.5,2185.5 C 4747.5,2185.5 4770.5,2185.5 4793.5,2185.5C 4793.5,2343.83 4793.5,2502.17 4793.5,2660.5C 4771.17,2660.5 4748.83,2660.5 4726.5,2660.5C 4726.67,2643.83 4726.5,2627.16 4726,2610.5C 4707.57,2641.56 4680.4,2660.06 4644.5,2666C 4562.36,2672.86 4508.86,2637.02 4484,2558.5C 4473.88,2518.41 4472.88,2478.07 4481,2437.5C 4490.08,2395.13 4512.25,2361.63 4547.5,2337C 4587.44,2314.46 4629.11,2310.79 4672.5,2326C 4694.83,2334.91 4712,2349.74 4724,2370.5C 4724.5,2308.83 4724.67,2247.17 4724.5,2185.5 Z M 4625.5,2375.5 C 4677.38,2374.19 4710.22,2398.52 4724,2448.5C 4733.71,2487.39 4730.37,2525.05 4714,2561.5C 4690.99,2600.3 4657.16,2615.14 4612.5,2606C 4580.52,2596.02 4560.02,2574.86 4551,2542.5C 4542.07,2507.74 4542.41,2473.07 4552,2438.5C 4564.12,2402.87 4588.62,2381.87 4625.5,2375.5 Z"/></g>
<g><path style="opacity:0.985" fill="#000000" d="M 4173.5,2315.5 C 4255.9,2314.93 4309.06,2353.93 4333,2432.5C 4338.99,2458.15 4341.49,2484.15 4340.5,2510.5C 4257.83,2510.5 4175.17,2510.5 4092.5,2510.5C 4093.15,2543.67 4105.49,2571.5 4129.5,2594C 4146.85,2606.17 4166.18,2612 4187.5,2611.5C 4220.83,2612.59 4246.33,2599.26 4264,2571.5C 4265.93,2567.21 4267.76,2562.87 4269.5,2558.5C 4291.5,2557.17 4313.5,2557.17 4335.5,2558.5C 4324.66,2604.84 4297.33,2637.34 4253.5,2656C 4219.06,2669.06 4183.73,2672.06 4147.5,2665C 4093.84,2652.35 4057.34,2620.18 4038,2568.5C 4022.89,2522.59 4021.56,2476.25 4034,2429.5C 4056.21,2361.43 4102.71,2323.43 4173.5,2315.5 Z M 4178.5,2372.5 C 4225.56,2372.42 4256.06,2394.75 4270,2439.5C 4271.6,2445.76 4272.77,2452.1 4273.5,2458.5C 4213.5,2458.5 4153.5,2458.5 4093.5,2458.5C 4099.24,2407.1 4127.57,2378.43 4178.5,2372.5 Z"/></g>
<g><path style="opacity:0.983" fill="#000000" d="M 3847.5,2316.5 C 3875.96,2314.02 3903.63,2317.52 3930.5,2327C 3975.18,2345.53 3998.52,2379.03 4000.5,2427.5C 3978.5,2427.5 3956.5,2427.5 3934.5,2427.5C 3932.61,2396.93 3916.61,2378.43 3886.5,2372C 3867.04,2368.31 3848.37,2370.64 3830.5,2379C 3807.5,2393 3801.67,2412.16 3813,2436.5C 3822.56,2446.53 3834.06,2453.37 3847.5,2457C 3869.8,2462.16 3892.13,2467.16 3914.5,2472C 3938.26,2476.72 3959.92,2486.05 3979.5,2500C 4003.81,2522.27 4012.98,2549.77 4007,2582.5C 4001.54,2609.28 3987.38,2630.12 3964.5,2645C 3945.41,2656.7 3924.75,2664.03 3902.5,2667C 3867.51,2672.01 3833.51,2668.35 3800.5,2656C 3757.29,2637.58 3733.95,2604.92 3730.5,2558C 3753.16,2557.5 3775.83,2557.33 3798.5,2557.5C 3801.63,2589.8 3819.3,2608.3 3851.5,2613C 3870.93,2616.08 3889.93,2614.41 3908.5,2608C 3932.89,2598.38 3942.39,2580.88 3937,2555.5C 3932.88,2547.72 3927.05,2541.55 3919.5,2537C 3912.41,2533.41 3905.07,2530.41 3897.5,2528C 3872.46,2522.49 3847.46,2516.82 3822.5,2511C 3794.79,2504.91 3771.96,2491.07 3754,2469.5C 3740.42,2448.4 3735.76,2425.4 3740,2400.5C 3743.66,2378.34 3754.16,2360.18 3771.5,2346C 3793.99,2328.78 3819.33,2318.95 3847.5,2316.5 Z"/></g>
<g><path style="opacity:0.986" fill="#000000" d="M 4970.5,2316.5 C 4998.04,2315.28 5024.71,2319.44 5050.5,2329C 5088.97,2346.14 5110.47,2375.64 5115,2417.5C 5115.5,2498.5 5115.67,2579.5 5115.5,2660.5C 5093.17,2660.5 5070.83,2660.5 5048.5,2660.5C 5048.67,2644.83 5048.5,2629.16 5048,2613.5C 5025.7,2651.33 4992.36,2668.99 4948,2666.5C 4915.84,2667.33 4887.01,2658.17 4861.5,2639C 4839.98,2618.97 4829.65,2594.14 4830.5,2564.5C 4829.37,2529.58 4843.7,2503.42 4873.5,2486C 4894.52,2476.24 4916.52,2469.58 4939.5,2466C 4968.19,2462.16 4996.86,2458.16 5025.5,2454C 5045.23,2450.07 5052.4,2438.24 5047,2418.5C 5042.25,2397.75 5029.75,2383.91 5009.5,2377C 4988.74,2371.01 4968.08,2371.34 4947.5,2378C 4928.23,2384.69 4915.07,2397.52 4908,2416.5C 4906.89,2420.09 4906.39,2423.75 4906.5,2427.5C 4884.17,2427.5 4861.83,2427.5 4839.5,2427.5C 4841.57,2387.3 4859.9,2357.14 4894.5,2337C 4918.44,2324.52 4943.77,2317.68 4970.5,2316.5 Z M 5047.5,2496.5 C 5048.66,2510.99 5048.83,2525.66 5048,2540.5C 5043.07,2580.77 5020.57,2603.93 4980.5,2610C 4958.83,2613.57 4938.17,2610.57 4918.5,2601C 4902.22,2589.59 4896.05,2574.09 4900,2554.5C 4902.77,2543.13 4909.27,2534.63 4919.5,2529C 4929.45,2524.02 4939.78,2520.02 4950.5,2517C 4977.2,2512.55 5003.87,2507.88 5030.5,2503C 5036.61,2501.69 5042.27,2499.52 5047.5,2496.5 Z"/></g>
<g><path style="opacity:0.979" fill="#000000" d="M 5300.5,2319.5 C 5313.51,2319.4 5326.51,2319.73 5339.5,2320.5C 5339.5,2341.83 5339.5,2363.17 5339.5,2384.5C 5324.93,2382.01 5310.26,2381.18 5295.5,2382C 5259.44,2388.4 5239.6,2409.9 5236,2446.5C 5235.5,2517.83 5235.33,2589.17 5235.5,2660.5C 5212.5,2660.5 5189.5,2660.5 5166.5,2660.5C 5166.5,2548.17 5166.5,2435.83 5166.5,2323.5C 5188.5,2323.5 5210.5,2323.5 5232.5,2323.5C 5232.33,2341.17 5232.5,2358.84 5233,2376.5C 5243.85,2343.47 5266.35,2324.47 5300.5,2319.5 Z"/></g>
<g><path style="opacity:0.978" fill="#000000" d="M 4372.5,2323.5 C 4395.5,2323.5 4418.5,2323.5 4441.5,2323.5C 4441.5,2435.83 4441.5,2548.17 4441.5,2660.5C 4418.5,2660.5 4395.5,2660.5 4372.5,2660.5C 4372.5,2548.17 4372.5,2435.83 4372.5,2323.5 Z"/></g>
</svg>
