<?xml version="1.0" encoding="UTF-8"?>
<!DOCTYPE svg PUBLIC "-//W3C//DTD SVG 1.1//EN" "http://www.w3.org/Graphics/SVG/1.1/DTD/svg11.dtd">
<svg xmlns="http://www.w3.org/2000/svg" version="1.1" width="8001px" height="4500px" style="shape-rendering:geometricPrecision; text-rendering:geometricPrecision; image-rendering:optimizeQuality; fill-rule:evenodd; clip-rule:evenodd" xmlns:xlink="http://www.w3.org/1999/xlink">
<g><path style="opacity:0.994" fill="#d6e463" d="M 3111.5,1843.5 C 3242.75,1838.39 3347.92,1887.72 3427,1991.5C 3452.6,2027.87 3471.1,2067.71 3482.5,2111C 3481.03,2115.29 3478.03,2116.63 3473.5,2115C 3459.49,2106.21 3444.49,2099.55 3428.5,2095C 3399.96,2087.19 3370.96,2081.85 3341.5,2079C 3266.66,2071.29 3192.33,2074.62 3118.5,2089C 3097.19,2093.22 3076.85,2100.22 3057.5,2110C 3027.8,2126.78 3027.13,2144.45 3055.5,2163C 3075.16,2173.11 3095.83,2180.44 3117.5,2185C 3212.1,2203.93 3306.76,2204.26 3401.5,2186C 3425.48,2181.56 3448.15,2173.56 3469.5,2162C 3474.08,2159.42 3478.08,2156.09 3481.5,2152C 3484.46,2149.95 3487.29,2150.11 3490,2152.5C 3503.92,2282.09 3462.09,2389.59 3364.5,2475C 3270.01,2549.1 3164.01,2572.44 3046.5,2545C 2938.71,2514.2 2860.55,2448.37 2812,2347.5C 2803.28,2328.51 2796.45,2308.84 2791.5,2288.5C 2792.6,2284.23 2795.27,2282.73 2799.5,2284C 2816.53,2294.68 2834.86,2302.34 2854.5,2307C 2906.44,2319.23 2959.11,2325.06 3012.5,2324.5C 3061.37,2324.9 3109.7,2320.07 3157.5,2310C 3182.83,2305.34 3206.16,2296.01 3227.5,2282C 3243.6,2268.36 3243.27,2255.03 3226.5,2242C 3217.77,2235.97 3208.44,2230.97 3198.5,2227C 3169.01,2216.43 3138.68,2209.43 3107.5,2206C 3031.19,2197.03 2955.19,2199.03 2879.5,2212C 2852.75,2216.69 2827.42,2225.36 2803.5,2238C 2799.13,2240.86 2795.13,2244.19 2791.5,2248C 2787.52,2249.38 2784.69,2248.21 2783,2244.5C 2770.2,2107.31 2817.7,1996.48 2925.5,1912C 2981.13,1872.02 3043.13,1849.19 3111.5,1843.5 Z"/></g>
<g><path style="opacity:0.977" fill="#fefffe" d="M 4283.5,1961.5 C 4308.58,1961.43 4324.08,1973.43 4330,1997.5C 4331.62,2023.43 4319.79,2039.26 4294.5,2045C 4269.08,2047.55 4252.58,2036.72 4245,2012.5C 4242.18,1983.51 4255.01,1966.51 4283.5,1961.5 Z"/></g>
<g><path style="opacity:0.984" fill="#fefffe" d="M 4605.5,1964.5 C 4628.5,1964.5 4651.5,1964.5 4674.5,1964.5C 4674.5,2122.83 4674.5,2281.17 4674.5,2439.5C 4652.17,2439.5 4629.83,2439.5 4607.5,2439.5C 4607.67,2422.83 4607.5,2406.16 4607,2389.5C 4588.57,2420.56 4561.4,2439.06 4525.5,2445C 4443.36,2451.86 4389.86,2416.02 4365,2337.5C 4354.88,2297.41 4353.88,2257.07 4362,2216.5C 4371.08,2174.13 4393.25,2140.63 4428.5,2116C 4468.44,2093.46 4510.11,2089.79 4553.5,2105C 4575.83,2113.91 4593,2128.74 4605,2149.5C 4605.5,2087.83 4605.67,2026.17 4605.5,1964.5 Z M 4506.5,2154.5 C 4558.38,2153.19 4591.22,2177.52 4605,2227.5C 4614.71,2266.39 4611.37,2304.05 4595,2340.5C 4571.99,2379.3 4538.16,2394.14 4493.5,2385C 4461.52,2375.02 4441.02,2353.86 4432,2321.5C 4423.07,2286.74 4423.41,2252.07 4433,2217.5C 4445.12,2181.87 4469.62,2160.87 4506.5,2154.5 Z"/></g>
<g><path style="opacity:0.985" fill="#fefffe" d="M 4053.5,2094.5 C 4135.9,2093.93 4189.06,2132.93 4213,2211.5C 4218.99,2237.15 4221.49,2263.15 4220.5,2289.5C 4137.83,2289.5 4055.17,2289.5 3972.5,2289.5C 3973.15,2322.67 3985.49,2350.5 4009.5,2373C 4026.85,2385.17 4046.18,2391 4067.5,2390.5C 4100.83,2391.59 4126.33,2378.26 4144,2350.5C 4145.93,2346.21 4147.76,2341.87 4149.5,2337.5C 4171.5,2336.17 4193.5,2336.17 4215.5,2337.5C 4204.66,2383.84 4177.33,2416.34 4133.5,2435C 4099.06,2448.06 4063.73,2451.06 4027.5,2444C 3973.84,2431.35 3937.34,2399.18 3918,2347.5C 3902.89,2301.59 3901.56,2255.25 3914,2208.5C 3936.21,2140.43 3982.71,2102.43 4053.5,2094.5 Z M 4058.5,2151.5 C 4105.56,2151.42 4136.06,2173.75 4150,2218.5C 4151.6,2224.76 4152.77,2231.1 4153.5,2237.5C 4093.5,2237.5 4033.5,2237.5 3973.5,2237.5C 3979.24,2186.1 4007.57,2157.43 4058.5,2151.5 Z"/></g>
<g><path style="opacity:0.983" fill="#fefffe" d="M 3728.5,2095.5 C 3756.96,2093.02 3784.63,2096.52 3811.5,2106C 3856.18,2124.53 3879.52,2158.03 3881.5,2206.5C 3859.5,2206.5 3837.5,2206.5 3815.5,2206.5C 3813.61,2175.93 3797.61,2157.43 3767.5,2151C 3748.04,2147.31 3729.37,2149.64 3711.5,2158C 3688.5,2172 3682.67,2191.16 3694,2215.5C 3703.56,2225.53 3715.06,2232.37 3728.5,2236C 3750.8,2241.16 3773.13,2246.16 3795.5,2251C 3819.26,2255.72 3840.92,2265.05 3860.5,2279C 3884.81,2301.27 3893.98,2328.77 3888,2361.5C 3882.54,2388.28 3868.38,2409.12 3845.5,2424C 3826.41,2435.7 3805.75,2443.03 3783.5,2446C 3748.51,2451.01 3714.51,2447.35 3681.5,2435C 3638.29,2416.58 3614.95,2383.92 3611.5,2337C 3634.16,2336.5 3656.83,2336.33 3679.5,2336.5C 3682.63,2368.8 3700.3,2387.3 3732.5,2392C 3751.93,2395.08 3770.93,2393.41 3789.5,2387C 3813.89,2377.38 3823.39,2359.88 3818,2334.5C 3813.88,2326.72 3808.05,2320.55 3800.5,2316C 3793.41,2312.41 3786.07,2309.41 3778.5,2307C 3753.46,2301.49 3728.46,2295.82 3703.5,2290C 3675.79,2283.91 3652.96,2270.07 3635,2248.5C 3621.42,2227.4 3616.76,2204.4 3621,2179.5C 3624.66,2157.34 3635.16,2139.18 3652.5,2125C 3674.99,2107.78 3700.33,2097.95 3728.5,2095.5 Z"/></g>
<g><path style="opacity:0.986" fill="#fefffe" d="M 4850.5,2095.5 C 4878.04,2094.28 4904.71,2098.44 4930.5,2108C 4968.97,2125.14 4990.47,2154.64 4995,2196.5C 4995.5,2277.5 4995.67,2358.5 4995.5,2439.5C 4973.17,2439.5 4950.83,2439.5 4928.5,2439.5C 4928.67,2423.83 4928.5,2408.16 4928,2392.5C 4905.7,2430.33 4872.36,2447.99 4828,2445.5C 4795.84,2446.33 4767.01,2437.17 4741.5,2418C 4719.98,2397.97 4709.65,2373.14 4710.5,2343.5C 4709.37,2308.58 4723.7,2282.42 4753.5,2265C 4774.52,2255.24 4796.52,2248.58 4819.5,2245C 4848.19,2241.16 4876.86,2237.16 4905.5,2233C 4925.23,2229.07 4932.4,2217.24 4927,2197.5C 4922.25,2176.75 4909.75,2162.91 4889.5,2156C 4868.74,2150.01 4848.08,2150.34 4827.5,2157C 4808.23,2163.69 4795.07,2176.52 4788,2195.5C 4786.89,2199.09 4786.39,2202.75 4786.5,2206.5C 4764.17,2206.5 4741.83,2206.5 4719.5,2206.5C 4721.57,2166.3 4739.9,2136.14 4774.5,2116C 4798.44,2103.52 4823.77,2096.68 4850.5,2095.5 Z M 4927.5,2275.5 C 4928.66,2289.99 4928.83,2304.66 4928,2319.5C 4923.07,2359.77 4900.57,2382.93 4860.5,2389C 4838.83,2392.57 4818.17,2389.57 4798.5,2380C 4782.22,2368.59 4776.05,2353.09 4780,2333.5C 4782.77,2322.13 4789.27,2313.63 4799.5,2308C 4809.45,2303.02 4819.78,2299.02 4830.5,2296C 4857.2,2291.55 4883.87,2286.88 4910.5,2282C 4916.61,2280.69 4922.27,2278.52 4927.5,2275.5 Z"/></g>
<g><path style="opacity:0.979" fill="#fefffe" d="M 5180.5,2098.5 C 5193.51,2098.4 5206.51,2098.73 5219.5,2099.5C 5219.5,2120.83 5219.5,2142.17 5219.5,2163.5C 5204.93,2161.01 5190.26,2160.18 5175.5,2161C 5139.44,2167.4 5119.6,2188.9 5116,2225.5C 5115.5,2296.83 5115.33,2368.17 5115.5,2439.5C 5092.5,2439.5 5069.5,2439.5 5046.5,2439.5C 5046.5,2327.17 5046.5,2214.83 5046.5,2102.5C 5068.5,2102.5 5090.5,2102.5 5112.5,2102.5C 5112.33,2120.17 5112.5,2137.84 5113,2155.5C 5123.85,2122.47 5146.35,2103.47 5180.5,2098.5 Z"/></g>
<g><path style="opacity:0.978" fill="#fefffe" d="M 4252.5,2102.5 C 4275.5,2102.5 4298.5,2102.5 4321.5,2102.5C 4321.5,2214.83 4321.5,2327.17 4321.5,2439.5C 4298.5,2439.5 4275.5,2439.5 4252.5,2439.5C 4252.5,2327.17 4252.5,2214.83 4252.5,2102.5 Z"/></g>
</svg>
